<svg id="Layer_1" data-name="Layer 1" xmlns="http://www.w3.org/2000/svg" viewBox="0 0 370.23 356.25"><defs><style>.cls-1{fill:#e6e6e5;}.cls-2{fill:#818181;}.cls-3{fill:#848484;}.cls-4{fill:#898989;}.cls-5{fill:#8e8e8e;}.cls-6{fill:#abaaaa;}.cls-7{fill:#d0d0cf;}.cls-8{fill:#c8c7c7;}.cls-9{fill:#030303;}.cls-10{fill:#010101;}.cls-11{fill:#d9d8d8;}.cls-12{fill:#dadad9;}.cls-13{fill:#d7d7d6;}.cls-14{fill:#d5d4d4;}.cls-15{fill:#dadada;}.cls-16{fill:#d8d7d7;}.cls-17{fill:#d4d4d3;}.cls-18{fill:#d9d9d9;}.cls-19{fill:#d3d3d2;}.cls-20{fill:#d5d5d4;}.cls-21{fill:#c5c4c3;}.cls-22{fill:#d1d1d1;}.cls-23{fill:#e1e1e1;}.cls-24{fill:#dbdbdb;}.cls-25{fill:#d4d3d3;}.cls-26{fill:#dcdbdb;}.cls-27{fill:#cfcece;}.cls-28{fill:#d2d1d1;}.cls-29{fill:#d8d8d7;}.cls-30{fill:#dbdbda;}.cls-31{fill:#d0d0d0;}.cls-32{fill:#cbcaca;}.cls-33{fill:#d1d0d0;}.cls-34{fill:#bfbfbe;}.cls-35{fill:#d7d6d6;}.cls-36{fill:#c1c0c0;}.cls-37{fill:#d6d5d5;}.cls-38{fill:#c9c9c8;}.cls-39{fill:#d3d2d2;}</style></defs><title>logo jo</title><path class="cls-1" d="M481.25,263.91l0,4c.9,2,.3,4.33,1.42,6.28.6,3.17.16,6.47,1.27,9.57,3.55,49.61-9.36,94.32-40.69,133.14-19.08,23.64-43.38,39.66-73.59,45.52-20.9,4.06-41.24,1.55-60.17-8.23-7.15-3.69-13.92-1.7-20.91-1.63-1.64,0-3.36.95-4.93.55-6.51-1.65-9.63,1.71-13,6.84A150.32,150.32,0,0,1,234,498.37c-3.93,2.91-7.66,3.71-12.51,2.25-31.55-9.5-63-19.17-94.67-28.43-1.58-.46-3.25-.83-4.36-2.25-1.52-1.8-4.82-1.2-5.62-3.69-1.22-3.77-.12-6.55,3.75-8.53,11.34-5.82,23.31-10.39,34-17.43,14.83-9.73,27.87-20.87,32.59-39,.71-2.76,1.43-5.45,1.17-8.31.85-2.82-1.61-4.72-2-7.19l0-1.06c-1.2-1-1.48-2.53-2-3.92-1.38-1-2.3-2.17-1-3.87-1.41-1.37-1.22-3.39-2-5a174.69,174.69,0,0,1-8.06-36.11,157.85,157.85,0,0,1-.84-24.86c1.16-36.95,12.35-70.5,34-100.66,13.74-19.18,30.9-34.25,52.16-44.24,26.56-12.49,54-14.11,81.56-3.41,5,1.95,9.46,1.06,14.09.18,29.54-5.64,55.85,1.4,79.3,19.9,23.1,18.23,36.49,42.53,44,70.51.63,2.36,1,4.87,2.7,6.84A2.51,2.51,0,0,0,481.25,263.91Z" transform="translate(-116.36 -155.53)"/><path class="cls-2" d="M122.45,469.94c12.83,2.75,25.18,7.18,37.75,10.85q31.07,9.07,62,18.64c4.09,1.27,7.16.79,10.56-1.76,15.89-11.9,29.44-25.93,39.71-43,1.64-2.73,3.19-3.78,6.7-3.29,6.59.92,13.24-.33,19.82-1.24,2.19-.3,4.17-.42,6.27.65C346,471.71,384,464.69,419.15,438.26c30.57-23,48.11-54.92,58-91.35,5.61-20.56,6.86-41.56,6-62.76-.21-1.19-1.36-2.66.9-3.14,1.67,4.43,1.71,9.19,2,13.77,3.07,49-8.94,93.71-40.07,132.32C427.57,450,404.32,466,375,472.23a93,93,0,0,1-63.43-8.33c-3.62-1.85-7.06-2.7-10.9-1.89-6.27,1.31-12.6,1.17-18.91.9-2.91-.13-4.47.87-5.92,3.29-10.3,17.25-24,31.39-40.09,43.34a9.34,9.34,0,0,1-9.2,1.7c-33.69-10.2-67.43-20.19-101.15-30.3C118.38,478.83,117.42,475.06,122.45,469.94Z" transform="translate(-116.36 -155.53)"/><path class="cls-3" d="M484.12,281c-1.05.83-.73,2.05-.9,3.14-1.44-3.28-.68-6.79-1.05-10.18a.55.55,0,0,1,.89,0C483.48,276.32,484.51,278.55,484.12,281Z" transform="translate(-116.36 -155.53)"/><path class="cls-4" d="M186.37,385.75c1.34,2.21,4.42,3.93,2,7.19C187.78,390.52,185.5,388.58,186.37,385.75Z" transform="translate(-116.36 -155.53)"/><path class="cls-5" d="M483.06,274h-.89c-1.6-1.84-.72-4-.89-6.08C482.93,269.61,482.56,271.93,483.06,274Z" transform="translate(-116.36 -155.53)"/><path class="cls-6" d="M184.36,380.77c1.42.92,1.77,2.39,2,3.92C183.6,384.43,184,382.58,184.36,380.77Z" transform="translate(-116.36 -155.53)"/><path class="cls-7" d="M181.36,371.9c1.4,1.37,1.61,3.23,2,5C181,376,181.47,373.8,181.36,371.9Z" transform="translate(-116.36 -155.53)"/><path class="cls-8" d="M481.25,263.91c-2.8-.64-2.32-2.14-1-3.86C480.58,261.34,480.92,262.63,481.25,263.91Z" transform="translate(-116.36 -155.53)"/><path class="cls-9" d="M121.1,463.43c8.58-4.18,16.19-7.77,23.69-11.55,13.15-6.64,25.13-14.88,35.13-25.86,9-9.86,12.14-22.17,15.1-34.62.36-1.5-.57-2.54-1.13-3.67C178,355.5,174,321.69,180.17,286.45c5.86-33.68,19.6-63.51,43.25-88.41,19.11-20.12,42.13-33.34,69.94-36.71,14.12-1.71,28.45-.78,41.61,5,7.18,3.18,13.7,2.91,20.95,1.5,28-5.46,53.06,1.65,75,19.32,24.33,19.59,37.4,45.94,43.46,76.11,9.52,47.43.9,91.72-24.24,132.67-16.35,26.65-38.74,46.73-69,56.62-24.62,8-48.73,6.4-71.81-5.74-3.63-1.91-6.88-3-11.13-2-7.49,1.71-15.23,1.55-22.87,1-3-.23-4.37.86-5.78,3.29a140.58,140.58,0,0,1-39.86,44c-1.53,1.12-2.79,2.1-4.91,1.46C190.62,484.26,156.43,474,121.1,463.43Z" transform="translate(-116.36 -155.53)"/><path class="cls-1" d="M141.76,461.51a157,157,0,0,0,36.13-23c14.67-12.38,21.07-28.9,24.54-47a7.93,7.93,0,0,0-1-5.25c-15.88-30.93-20-63.58-14.18-97.67,6.1-35.92,21.16-67.24,48.24-92,20.18-18.46,43.83-29.14,71.71-28.45a82.52,82.52,0,0,1,33.53,8.36c1.76.84,3.33,1.86,5.6,1.15,43.82-13.56,81.09,7.86,101.38,38.83,16.95,25.87,23.47,54.6,22.85,85.13-.79,39-12.55,74.33-37,105-15.61,19.54-35,33.88-59.52,40.41-22.57,6-44.08,3.4-64.27-8.33A12.86,12.86,0,0,0,300,437c-9,1.91-18.08,2.6-27.22,1.06-3.63-.61-5.74.21-7.72,3.95-8.88,16.84-21.24,30.88-36.22,42.64a6.82,6.82,0,0,1-7.13,1.32c-25.76-7.88-51.6-15.48-77.42-23.18A20.74,20.74,0,0,1,141.76,461.51Z" transform="translate(-116.36 -155.53)"/><path class="cls-10" d="M256.89,322.75c1-42.49,14.66-82.16,46.35-114.58,15.07-15.42,33.13-26.11,54.48-29.95,25.11-4.51,47.73,1.88,67.4,18.12,20.43,16.88,32.22,39.22,37.8,64.55,11,49.92,1.73,96.29-27.89,138-15.79,22.24-36.39,38.56-63.56,45.1-32.73,7.88-60-2.28-82.26-26.38-18.65-20.17-27.46-44.88-31-71.82C257.33,338.84,257.52,331.89,256.89,322.75Z" transform="translate(-116.36 -155.53)"/><path class="cls-9" d="M311.72,195c-4.1,7-11.42,5.4-17.36,7.44,1.76,2.3,4.46,1,6.61,2.12-1.21,1.89-2.19,3.85-5,3-15.56-4.71-24.31,6.21-35.16,15.07l22.59,2.64c-.67,2.77-1.87,3.81-4.64,3.44-6.09-.81-12.25-1.1-18.33-1.95a5,5,0,0,0-5.15,1.86A162.61,162.61,0,0,0,240.5,249.2c-1.76,2.81-.48,3.34,1.93,3.73,6.87,1.12,13.75,2.19,20.57,3.55,1,.2,3.53-.61,3.15,1.94s-2,2.32-4.08,1.89c-7.3-1.49-14.68-2.61-22-4-2.32-.46-3.62,0-4.62,2.27a145.12,145.12,0,0,0-9.26,26.15c-.78,3.29.53,3.47,2.8,3.86q12.25,2.07,24.5,4.24c1.07.19,2.93-.48,2.44,2-.38,1.93-1.31,2.33-3.14,2-8.15-1.5-16.34-2.76-24.46-4.39-2.73-.55-3.65-.24-4.15,2.79-1.61,9.73-1.81,19.52-2.24,29.32-.11,2.57,1,3.06,3.1,3.38,8.52,1.28,17,2.76,25.54,4,1.71.26,2.91.57,2.79,2.59-.16,2.69-2.24,1.58-3.33,1.41-8-1.21-16-2.5-24-4-3.41-.65-4.17.39-4,3.72.37,8.48.46,17,.42,25.47,0,2.55.81,3.54,3.28,3.86,9.87,1.27,19.72,2.73,29.59,4,2.69.36,5,.91,4.83,4.73l-37.48-5.32a245.71,245.71,0,0,1-5.25,34.31c13,2.18,25.92,4.15,38.75,6.61,3.5.67,2.78-1.88,3-3.05,1.33-8.19,2.37-16.42,3.61-25.37,3.64,8.34,7.08,16.14,11.63,23.37,1.23,2,.13,4-.33,5.7-7.57,29.1-23.24,52.94-46.79,71.63-1.78,1.41-3.34,1.45-5.49.8-23.22-7-46.49-13.95-69.82-20.92.59-2.26,2.72-2.49,4.16-3.31a187.16,187.16,0,0,0,20.19-13.66c18.59-14,26.6-33.67,30.18-55.81,3.73-23.11,3.06-46.46,3.91-69.72,1.17-31.84,8.64-61.66,27.86-87.68,12.36-16.73,27.79-29.37,48.46-34.6A74,74,0,0,1,311.72,195Z" transform="translate(-116.36 -155.53)"/><path class="cls-10" d="M339.06,179.67a154.22,154.22,0,0,0-21.31,11.55,3.22,3.22,0,0,1-2.35.4c-39.3-4.5-66,14.87-85.95,46.11-12.19,19.1-18.75,40.35-21.25,63-2.32,21.07-1.39,42.24-2.8,63.32-.39,5.75-1,11.49-1.93,17.3A84.54,84.54,0,0,1,193.15,355c-12.83-59.93.46-112.72,44.89-155.89,20.64-20,46.09-29.78,75.39-27A71.7,71.7,0,0,1,339.06,179.67Z" transform="translate(-116.36 -155.53)"/><path class="cls-9" d="M300.91,433.35a90,90,0,0,1-27.53,1.54c-2.83-.22-4.26-.68-2.63-4.13a107.28,107.28,0,0,0,7.1-21.21A109.38,109.38,0,0,0,300.91,433.35Z" transform="translate(-116.36 -155.53)"/><path class="cls-1" d="M279.35,349.52c.32-6.39,3.72-15.76,10.45-23.77,6.54-7.77,14.71-12.91,25.16-11.46,11.35,1.57,18,9.27,21.75,19.62,6.62,18.18,0,41.28-14.83,52-13.28,9.64-29.32,6.26-37.53-7.95C280,370.44,278.6,362.21,279.35,349.52Z" transform="translate(-116.36 -155.53)"/><path class="cls-1" d="M292.33,264.9c.43-12.52,4.21-23.76,13.44-32.63,13.57-13,32.09-9.7,40.42,7.11,7.8,15.76,3.93,38.49-8.77,50.72-7.14,6.87-15.64,10.47-25.43,7.46-10.5-3.23-15.73-11.68-18.39-21.8C292.68,272.27,291.83,268.65,292.33,264.9Z" transform="translate(-116.36 -155.53)"/><path class="cls-1" d="M450.29,317c-.43,12.18-4.15,23.07-13.28,31.61-12.4,11.59-29,9-37.43-5.69-8.91-15.54-4.58-39.93,9.16-51.56,15.46-13.08,35.42-5.82,40.3,14.78C449.87,309.64,451,313.22,450.29,317Z" transform="translate(-116.36 -155.53)"/><path class="cls-1" d="M393.37,273.06c-11.29,0-21.09-9-23.85-22.29a44.34,44.34,0,0,1,6.35-34.31c6-9.16,14.2-15.61,25.57-14.2,12.13,1.51,18.56,10.18,21.2,21.56,3.74,16.1-.06,30.32-11.84,42C406.09,270.55,400.3,273.37,393.37,273.06Z" transform="translate(-116.36 -155.53)"/><path class="cls-1" d="M344.34,392.41c.65-12.67,4.37-24.07,14.43-32.59,12.78-10.82,29-7.57,36.77,7.3,7.59,14.46,4.8,35.28-6.3,47.47-7,7.65-15.38,12-25.73,9.09s-15.51-11.41-18-21.39C344.77,399.13,343.71,395.85,344.34,392.41Z" transform="translate(-116.36 -155.53)"/><path class="cls-1" d="M382.34,308.32a24.45,24.45,0,0,1-5.42,15.62c-3.71,4.54-8.4,7.25-14.36,5.9-5.68-1.29-8.71-5.49-10.31-11-2.83-9.63.77-21.06,8.39-26.08,6.87-4.53,14.46-2.85,18.72,4.16A20.51,20.51,0,0,1,382.34,308.32Z" transform="translate(-116.36 -155.53)"/><path class="cls-1" d="M202.87,435.66a70.37,70.37,0,0,0,12.51-26.12c.64-2.6,2.11-3,4.37-2.57,11.75,2,23.5,4.06,35.27,6,2.43.4,2.37,1.41,1.83,3.43-2.66,9.93-7.83,18.56-13.6,26.9a3.25,3.25,0,0,1-3.8,1.55Z" transform="translate(-116.36 -155.53)"/><path class="cls-1" d="M174.7,462.94a146.35,146.35,0,0,0,23.17-21.25c1.93-2.21,3.79-2.28,6.09-1.72,10.72,2.63,21.41,5.39,32.16,7.9,2.65.62,2.51,1.53,1.1,3.21A162.64,162.64,0,0,1,215.57,473c-1,.81-2,1.58-3.56,1.09C199.91,470.42,187.78,466.84,174.7,462.94Z" transform="translate(-116.36 -155.53)"/><path class="cls-11" d="M178.71,448.52c1.7-1.54,2.85-2.45,3.86-3.51a3.4,3.4,0,0,1,4.83-.54c.54.36,1.95.56,1,1.6-1.51,1.62-2.73,3.92-5.33,3.86C181.81,449.91,180.58,449.16,178.71,448.52Z" transform="translate(-116.36 -155.53)"/><path class="cls-12" d="M263.29,426.17c-1.34,1.24-.32,4.69-3.64,4.65-1.07,0-3.06-.48-2.51-2,.69-1.86.15-5.05,3.59-4.95C261.93,423.94,263.61,423.66,263.29,426.17Z" transform="translate(-116.36 -155.53)"/><path class="cls-13" d="M180.31,452.89c-2.88,3.18-5.72,5.24-9.69,1.58C173.47,452.21,176,449.14,180.31,452.89Z" transform="translate(-116.36 -155.53)"/><path class="cls-14" d="M234.39,462c2-2.58,3.41-5.43,7.16-3.84.86.37,1.77.83.8,2.12C240.28,463.05,238.05,464.8,234.39,462Z" transform="translate(-116.36 -155.53)"/><path class="cls-15" d="M203.47,416.31c1.84-1.74.27-6.42,5.15-5.36,2.2.48,1.57,1.7,1.16,3.33C208.77,418.26,206.6,418.1,203.47,416.31Z" transform="translate(-116.36 -155.53)"/><path class="cls-16" d="M195.76,437.69c-2,2.93-3.5,6.81-8.45,2.81C189.72,438.2,191.07,434,195.76,437.69Z" transform="translate(-116.36 -155.53)"/><path class="cls-17" d="M235.45,467.2c-2.21,3.12-4.43,5.83-8.89,2.64C228.88,466.79,231.13,464.19,235.45,467.2Z" transform="translate(-116.36 -155.53)"/><path class="cls-15" d="M198,427.85c1.06,1,3.42.54,3.15,2-.36,1.94-1.29,4.34-3.72,4.57-.77.07-3.22,0-3.06-1.68A6.7,6.7,0,0,1,198,427.85Z" transform="translate(-116.36 -155.53)"/><path class="cls-18" d="M202.82,426.6c-1.14-1.12-3.88-.45-3-2.66.61-1.55.68-4.27,3.52-4,1.22.11,3.27.13,2.82,1.81S205.06,425.84,202.82,426.6Z" transform="translate(-116.36 -155.53)"/><path class="cls-19" d="M260.3,419.4c1.84-1.51-.22-6.17,4.87-4.81,2.2.59,1.35,1.69,1.17,2.89C265.7,421.57,263.19,420.56,260.3,419.4Z" transform="translate(-116.36 -155.53)"/><path class="cls-14" d="M162.13,459.79c4.62-3.33,4.62-3.33,9.18-.56C168.6,462.22,165.72,462.76,162.13,459.79Z" transform="translate(-116.36 -155.53)"/><path class="cls-20" d="M254.76,443.6c-1.89,1.9-1.92,5.76-6,3.54-1.53-.84-1.28-1.23-.7-2.49C249.65,441.21,251.84,441.69,254.76,443.6Z" transform="translate(-116.36 -155.53)"/><path class="cls-21" d="M213.47,378.07c0-2.25.5-3.36,2.59-3.16s2.25,1.44,2,3.11-.46,3.25-2.92,2.91S213.66,378.83,213.47,378.07Z" transform="translate(-116.36 -155.53)"/><path class="cls-22" d="M255.9,439.54c-1.12-.92-3.47-.21-3.14-2,.27-1.5.76-3.77,3.25-3.64,1.26.06,3,.28,2.81,1.8S258,439.18,255.9,439.54Z" transform="translate(-116.36 -155.53)"/><path class="cls-20" d="M219.24,476.44c3.54-3.5,3.54-3.5,8.08-1.32C225.15,478.17,222.81,479.68,219.24,476.44Z" transform="translate(-116.36 -155.53)"/><path class="cls-23" d="M214.66,348.84c0-1.48-.28-2.91,1.93-2.52,2.59.45,2.17,2.41,2.25,4.15.07,1.47-.2,2.61-2.12,2.38C213.83,352.51,215,350.24,214.66,348.84Z" transform="translate(-116.36 -155.53)"/><path class="cls-24" d="M212,388.62c.77-1.82-.51-4.27,2.81-3.91,2.79.3,2,1.77,1.8,3.33s.12,3.33-2.55,2.88C212.2,390.61,211.18,390.16,212,388.62Z" transform="translate(-116.36 -155.53)"/><path class="cls-25" d="M248.93,451.28c-1,3.14-2.63,4.67-5.82,3.56-1.09-.38-1.53-.9-.9-2.14C243.81,449.55,246.21,450.26,248.93,451.28Z" transform="translate(-116.36 -155.53)"/><path class="cls-15" d="M263.52,408.49c1.29-.57-.35-3.79,2.46-2.89.95.31,3.62-.78,2.72,2-.41,1.24.58,3.75-2.32,3.27C265,410.65,263.21,410.94,263.52,408.49Z" transform="translate(-116.36 -155.53)"/><path class="cls-26" d="M215.28,396.64c-.82,1,.07,3.48-2.45,3.35-1.28-.07-3.38.3-2.85-2.07.28-1.31-.16-3.73,2.57-3.15C213.61,395,215.44,394.22,215.28,396.64Z" transform="translate(-116.36 -155.53)"/><path class="cls-27" d="M210,403.4c.7,1,3.61-.64,2.66,2.23-.34,1,.28,3.21-1.92,2.61-1.18-.32-3.54.31-3.24-2C207.66,405.09,207.73,403.05,210,403.4Z" transform="translate(-116.36 -155.53)"/><path class="cls-28" d="M218.61,310.68c-.48,1.31.7,3.26-1.88,3.33-2.11.05-2.52-1-2.19-2.74.28-1.51-.06-3.46,2.49-3.35C219.28,308,218.28,309.72,218.61,310.68Z" transform="translate(-116.36 -155.53)"/><path class="cls-29" d="M218.35,340.36c-.17.61.91,2.46-1.41,2.34-2.13-.1-2.71-1.42-2.58-3.37.09-1.35-.19-2.61,1.95-2.47S218.52,338.35,218.35,340.36Z" transform="translate(-116.36 -155.53)"/><path class="cls-29" d="M218.34,320.87c-.12,1.16.47,2.76-1.82,2.57-2.05-.18-2.33-1.31-2.22-3,.08-1.37-.08-2.57,2-2.55C218.6,317.89,218.48,319.29,218.34,320.87Z" transform="translate(-116.36 -155.53)"/><path class="cls-30" d="M214.3,329.77c.31-1-.69-2.78,1.72-2.52,2.24.25,2.37,1.69,2.38,3.47,0,1.62-.37,2.37-2.19,2.28C213.79,332.88,214.43,331.19,214.3,329.77Z" transform="translate(-116.36 -155.53)"/><path class="cls-31" d="M220.48,292.28c-.07,1.47.07,3-2.24,2.87-2-.12-2-1.31-1.64-2.66s0-3.25,2.06-3.31S220.74,290.74,220.48,292.28Z" transform="translate(-116.36 -155.53)"/><path class="cls-32" d="M220.86,285.66c-2.13-.13-2.87-1-2.46-2.31.47-1.59.47-3.78,3.17-3.46,1.2.15,1.81.43,1.14,1.78S223,285.55,220.86,285.66Z" transform="translate(-116.36 -155.53)"/><path class="cls-33" d="M218.81,359.14c-.2,1.88.14,3.35-2.06,3.14s-2.3-1.27-2.19-3c.1-1.49.27-2.49,2.16-2.49C219,356.81,218.94,358.19,218.81,359.14Z" transform="translate(-116.36 -155.53)"/><path class="cls-34" d="M266.88,395.42l3.24,6.13c-1.82.41-3.66,1-4.45-.52S265.4,397.27,266.88,395.42Z" transform="translate(-116.36 -155.53)"/><path class="cls-35" d="M229.26,262.37c-1.08,2.4-1,6-5.43,4.21C224.71,264.07,224.78,260.64,229.26,262.37Z" transform="translate(-116.36 -155.53)"/><path class="cls-12" d="M218.38,368.78c.2,1.66-.34,2.37-2.2,2.27-2.05-.12-1.93-1.36-1.81-2.71.09-1-.38-2.45,1.58-2.38S218.65,366.92,218.38,368.78Z" transform="translate(-116.36 -155.53)"/><path class="cls-8" d="M230.81,253.19c1.39.17,2.16.62,1.68,1.95-.55,1.56-1,3.24-3.28,2.9-1-.15-2.1-.13-1.36-1.67S228.81,253.08,230.81,253.19Z" transform="translate(-116.36 -155.53)"/><path class="cls-29" d="M250,222.62c1.48-3.05,3.62-4.51,7.15-3.23C255.6,222.45,253.48,223.94,250,222.62Z" transform="translate(-116.36 -155.53)"/><path class="cls-28" d="M225.57,272.2c-.56,1.55-.16,3.86-2.88,3.75-.89,0-2.17.15-1.61-1.53.49-1.47.26-3.53,2.6-3.53C224.42,270.89,225.86,270.39,225.57,272.2Z" transform="translate(-116.36 -155.53)"/><path class="cls-1" d="M217.52,303.91c-1.34.14-2.26-.24-2.12-1.86.12-1.42-.35-3.15,2.09-3.07,1.59.06,2,.88,1.89,2.23S219.74,304.08,217.52,303.91Z" transform="translate(-116.36 -155.53)"/><path class="cls-36" d="M291.14,200.81c-4.2,2.87-7.8,2.3-11.85.86C283.18,199.31,286.84,201.28,291.14,200.81Z" transform="translate(-116.36 -155.53)"/><path class="cls-28" d="M237.35,245.33c-.78,2.75-2,4.65-5.35,3.28C232.57,245.53,234,243.87,237.35,245.33Z" transform="translate(-116.36 -155.53)"/><path class="cls-37" d="M242.9,236.31c-.93,2.7-2.22,4.83-5.85,3.37C238,236.7,239.47,234.92,242.9,236.31Z" transform="translate(-116.36 -155.53)"/><path class="cls-38" d="M249.28,228.4c-1.43,1.62-2.25,4-5.09,2.92-1-.38-1.15-1-.58-1.85C245,227.36,246.62,226.52,249.28,228.4Z" transform="translate(-116.36 -155.53)"/><path class="cls-24" d="M275,206.88c-2.38,2.82-4.78,1.88-7.56,1.06C269.91,205.29,272.27,205.89,275,206.88Z" transform="translate(-116.36 -155.53)"/><path class="cls-39" d="M258.52,214.6c1.91-3,4.25-1.57,6.54-1.49C263.39,215.72,261.16,215,258.52,214.6Z" transform="translate(-116.36 -155.53)"/></svg>